<?xml version="1.0" encoding="utf-8"?>
<!-- Generator: Adobe Illustrator 19.2.1, SVG Export Plug-In . SVG Version: 6.00 Build 0)  -->
<svg version="1.1" id="Layer_1" xmlns="http://www.w3.org/2000/svg" xmlns:xlink="http://www.w3.org/1999/xlink" x="0px" y="0px"
	 viewBox="0 0 633.4 211.4" style="enable-background:new 0 0 633.4 211.4;" xml:space="preserve">
<style type="text/css">
	.st0{fill:#78C157;}
	.st1{fill:#FFFFFF;}
</style>
<g id="droidBot_1_">
	<polygon id="body" class="st0" points="561.4,140.1 633,211.4 633,67.7 	"/>
	<g id="arm_1_">
		<path id="fingers" class="st0" d="M504.4,117.6l-13.5-19.4c-0.8-1.2-2.8-1.6-4.4-0.8c-1.2,0.8-1.6,2.8-0.8,4.4l9.9,17l-18.2-7.9
			c-1.6-0.8-3.2,0-4,1.6s0,3.2,1.6,4l15.8,7.9c5.5,3.2,7.9,3.6,9.9,2.4C503.6,125.1,507.1,122.7,504.4,117.6z"/>
		<path id="arm" class="st0" d="M542,176.6c7.1,4.8,17,2.8,21.8-4.4c4.8-7.1,2.8-17-4.4-21.8l-46.3-30.1c-2.4-1.6-5.5-2.4-8.3-2.4
			l0,0c-5.1,0-10.3,2.4-13.1,6.7l0,0c0,0,0,0,0,0.4c-2.4,3.6-3.2,7.9-2.4,11.5c0.8,4,3.2,7.5,6.7,9.9l0,0l0,0L542,176.6z"/>
	</g>
	<g id="head_1_">
		<path id="head" class="st0" d="M590.7,23.8c-7.5-23.8-6.3-20.2-7.5-22.6l0,0c-0.4-0.8-0.8-1.2-1.6-1.2c-0.8,0-1.6,0.8-1.6,2
			c0,0.4,6.7,23.4,6.7,23.8c-9.1,3.6-18.2,9.1-25.7,17c-7.5,7.5-13.1,16.6-16.6,25.7c-25.3-7.5-22.2-6.3-24.1-7.1l0,0h-0.4
			c-0.8,0-1.6,0.8-1.6,2c0,0.8,0.4,1.6,1.2,1.6l0,0c1.6,0.4-1.2-0.4,23.8,7.5c-7.1,22.6-2.4,47.5,14.6,64.1l75.6-76.4v-36
			C611.3,16.2,590.7,23.8,590.7,23.8z"/>
		<path id="Leye" class="st1" d="M556.2,82.3c-2.4,2.4-2.4,6.3,0,8.7c2.4,2.4,6.3,2.4,8.7,0c2.4-2.4,2.4-6.3,0-8.7
			C562.6,80,558.6,80,556.2,82.3z"/>
		<path id="Reye" class="st1" d="M602.2,37.2c-2.4,2.4-2.4,6.3,0,8.7c2.4,2.4,6.3,2.4,8.7,0c2.4-2.4,2.4-6.3,0-8.7
			C608.5,34.8,604.5,34.8,602.2,37.2z"/>
	</g>
</g>
<g id="logo">
	<path class="st0" d="M445,188.8V98.6h-17v26.5c-4.8-4.8-11.5-7.1-19.4-7.1c-19.8,0-34.4,15.8-34.4,36s15,36.4,34.4,36.4
		c7.9,0,14.6-2.8,19.4-7.5v5.9H445L445,188.8z M410.1,173.8c-10.7,0-19-8.7-19-19.8c0-10.7,8.7-19.8,19-19.8c7.1,0,13.9,3.6,17,9.1
		c0.4,0.4,0.4,0.8,0.4,1.6v17.8c0,0.4-0.4,0.8-0.4,1.2C424,169.8,417.3,173.8,410.1,173.8L410.1,173.8L410.1,173.8z M365.8,188.8
		v-69.7h-17v69.7H365.8L365.8,188.8z M357.1,114c5.5,0,9.9-4.4,9.9-9.9c0-5.5-4.4-9.9-9.9-9.9c-5.5,0-9.9,4.4-9.9,9.9
		C347.2,109.3,352,114,357.1,114L357.1,114L357.1,114z M304.4,190c20.2,0,36.4-16.2,36.4-36.4c0-20.2-16.2-36-36.4-36
		c-20.2,0-36.4,15.8-36.4,36C268,173.8,284.3,190,304.4,190L304.4,190L304.4,190z M304.4,173c-10.3,0-19-8.3-19-19
		c0-10.3,8.3-19,19-19s19,8.3,19,19C323.4,164.3,315.1,173,304.4,173L304.4,173L304.4,173z M250.2,188.8v-37.2
		c0-11.1,5.9-17,16.6-17v-17c-22.2,0-34,11.9-34,33.7v37.2L250.2,188.8L250.2,188.8z M223.7,188.8V98.6h-17v26.5
		c-4.8-4.8-11.5-7.5-19.4-7.5c-19.8,0-34.4,16.2-34.4,36.4s15,36.4,34.4,36.4c7.9,0,14.6-2.8,19.4-7.5v5.9L223.7,188.8L223.7,188.8z
		 M189.2,173.8c-10.7,0-19-8.7-19-19.8c0-10.7,8.7-19.8,19-19.8c7.1,0,13.9,3.6,17,9.1c0.4,0.4,0.4,0.8,0.4,1.6v17.4
		c0,0.4-0.4,1.2-0.4,1.2C203.1,169.8,196.4,173.8,189.2,173.8L189.2,173.8L189.2,173.8z M145.3,188.8v-37.6
		c0-18.6-14.3-33.3-32.9-33.3s-32.9,14.6-32.9,33.3v37.6h17v-37.6c0-9.1,6.3-16.2,15.4-16.2s15.4,7.1,15.4,16.2v37.6H145.3
		L145.3,188.8z M70.9,188.8v-69.7h-17v5.9c-4.8-4.8-11.5-7.1-19.4-7.1C14.6,118,0,133.8,0,154s15,36.4,34.4,36.4
		c7.9,0,14.6-2.8,19.4-7.5v5.9H70.9L70.9,188.8z M36,173.8c-10.7,0-19-8.7-19-19.8c0-10.7,8.7-19.8,19-19.8c7.1,0,13.9,3.2,17,9.1
		c0.4,0.4,0.4,0.8,0.4,1.6v17.4c0,0.4-0.4,1.2-0.4,1.2C49.9,169.8,43.5,173.8,36,173.8L36,173.8z"/>
</g>
</svg>
