<?xml version="1.0" encoding="utf-8"?>
<!-- Generator: Adobe Illustrator 19.2.1, SVG Export Plug-In . SVG Version: 6.00 Build 0)  -->
<svg version="1.1" id="Layer_1" xmlns="http://www.w3.org/2000/svg" xmlns:xlink="http://www.w3.org/1999/xlink" x="0px" y="0px"
	 viewBox="0 0 639 239.5" style="enable-background:new 0 0 639 239.5;" xml:space="preserve">
<style type="text/css">
	.st0{fill:#93B2C1;}
	.st1{fill:#BABABD;}
</style>
<path class="st0" d="M46.9,127.8c-18.7,0-34.4-16.2-34.4-35.3c0-19.4,15.5-35.1,34.8-35.1S81.5,73.1,81.5,93
	C81.3,111.8,65.4,127.8,46.9,127.8 M81.5,61.2c-9-10.2-20.8-15.7-34.9-15.7C20.4,45.5,0,66.1,0,92.4c0,26.4,20.6,47.2,46.9,47.2
	c16.7,0,32.2-8.7,40.2-22.7c5.3-8.9,6.8-15.8,6.8-31.7V0H81.6v61.2H81.5z"/>
<path class="st0" d="M133.3,54.4L133.3,54.4L133.3,54.4z M122.9,52.3c-9.4,6.1-13.1,15.2-13.1,32.2V138H122V85.2
	c0-19.4,4.8-25.4,20.8-26.1h2.9V47.4h-3.1C134.1,47.2,128.5,48.7,122.9,52.3"/>
<path class="st0" d="M199.2,127.8c-17.9,0-33.7-16.4-33.7-35.1c0-19.4,15.3-35.3,34.3-35.3s34.3,16,34.3,35.4
	C234.1,112.1,218.5,127.8,199.2,127.8 M199.7,45.5C174,45.5,153,66.6,153,92.7c0,25.9,20.6,47,46,47c26.8,0,47.5-20.6,47.5-46.7
	C246.6,66.3,226,45.5,199.7,45.5"/>
<path class="st0" d="M389,127.8c-19.1,0-34.4-15.7-34.4-35.1s15.7-35.3,34.9-35.3c19.1,0,34.1,15.8,34.1,36
	C423.4,112.3,407.9,127.8,389,127.8 M429.2,68.2c-8-14-23.5-22.7-40.2-22.7c-26.2,0-46.7,20.6-46.7,47.2c0,26.4,20.4,47,46.5,47
	c14.1,0,25.9-5.5,34.9-15.7v14h12.3v-38C436.1,84,434.5,77,429.2,68.2"/>
<path class="st0" d="M276.6,105.5l3.6-29.1l31.5,0.2v8.9h13.1v-22h-4.6h-4.3h-46.7l-7.3,56.6c14-1.9,23.2-2.6,35.8,4.3
	c17.9,9.7,25.6,25.9,27.3,42.1c1.4,16-4.9,38.2-19.9,50.4c-13,10.9-31,12.4-46.5,7l-4.3,12.3c5.3,1.5,10.2,2.2,15.3,3.2
	c16.4,1.5,41.2-4.6,56.6-26.8c14.5-21.1,14.1-50.6,6.1-69C321.2,117.1,297.7,107.2,276.6,105.5"/>
<g>
	<path class="st1" d="M369.8,211.3c-4.6,0-9-1.2-13.3-4.6l3.6-4.8c2.4,2.2,6.3,3.4,9.4,3.4c4.6,0,7.7-2,7.7-6.3c0-3.7-3.6-6-7.5-8
		c-6.5-3.2-13-6.1-13-14.7c0-6.6,4.9-11.6,13.1-11.6c4.4,0,8.7,1.4,12.1,3.7l-3.4,5.1c-2.7-2-5.1-2.9-8.9-2.9
		c-3.6,0-6.5,1.9-6.5,5.1c0,4.9,4.3,6.5,9.9,9.4c5.1,2.6,10.6,5.8,10.6,13.3C383.6,206.7,377.3,211.3,369.8,211.3z"/>
	<path class="st1" d="M411.2,171.3v39.4H405v-39.4h-9.2v-5.8h25v5.8H411.2z"/>
	<path class="st1" d="M452.2,211.3c-10.4,0-17.6-6.6-17.6-17.7v-28.1h6.3v28.1c0,8.7,5.5,11.9,11.4,11.9c5.8,0,11.6-3.4,11.6-11.9
		v-28.1h6.1v28.1C470,204.3,462.5,211.3,452.2,211.3z"/>
	<path class="st1" d="M495.9,210.6H485v-45.2h11.4c15.3,0,24,10.1,24,22.5C520.6,200.4,511.4,210.6,495.9,210.6z M496.4,171.1h-5.1
		V205h4.1c13.3,0,18.9-8.7,18.9-17C514.1,178.7,507.1,171.1,496.4,171.1z"/>
	<path class="st1" d="M534,210.6v-45.2h6.1v45.2H534z"/>
	<path class="st1" d="M578,211.3c-13,0-23.2-9.9-23.2-23.3c0-13.1,9.9-23.2,22.8-23.2c14,0,23.3,10.2,23.3,23.3
		C601,201.1,590.8,211.3,578,211.3z M577.7,170.7c-9.7,0-16.5,7.2-16.5,17c0,10.1,7.8,17.4,16.7,17.4c8.9,0,16.7-6.6,16.7-17.6
		C594.5,178.1,587.7,170.7,577.7,170.7z"/>
	<path class="st1" d="M625.2,211.3c-4.6,0-9-1.2-13.3-4.6l3.6-4.8c2.4,2.2,6.3,3.4,9.4,3.4c4.6,0,7.7-2,7.7-6.3c0-3.7-3.6-6-7.5-8
		c-6.5-3.2-13-6.1-13-14.7c0-6.6,4.9-11.6,13.1-11.6c4.4,0,8.7,1.4,12.1,3.7l-3.4,5.1c-2.7-2-5.1-2.9-8.9-2.9
		c-3.6,0-6.5,1.9-6.5,5.1c0,4.9,4.3,6.5,9.9,9.4c5.1,2.6,10.6,5.8,10.6,13.3C639,206.7,632.7,211.3,625.2,211.3z"/>
</g>
</svg>
