<?xml version="1.0" encoding="utf-8"?>
<!-- Generator: Adobe Illustrator 19.2.1, SVG Export Plug-In . SVG Version: 6.00 Build 0)  -->
<svg version="1.1" id="Layer_1" xmlns="http://www.w3.org/2000/svg" xmlns:xlink="http://www.w3.org/1999/xlink" x="0px" y="0px"
	 viewBox="0 0 720 288" style="enable-background:new 0 0 720 288;" xml:space="preserve">
<metadata><?xpacket begin="﻿" id="W5M0MpCehiHzreSzNTczkc9d"?>
<x:xmpmeta xmlns:x="adobe:ns:meta/" x:xmptk="Adobe XMP Core 5.6-c111 79.158366, 2015/09/25-01:12:00        ">
   <rdf:RDF xmlns:rdf="http://www.w3.org/1999/02/22-rdf-syntax-ns#">
      <rdf:Description rdf:about=""/>
   </rdf:RDF>
</x:xmpmeta>
                                                                                                    
                                                                                                    
                                                                                                    
                                                                                                    
                                                                                                    
                                                                                                    
                                                                                                    
                                                                                                    
                                                                                                    
                                                                                                    
                                                                                                    
                                                                                                    
                                                                                                    
                                                                                                    
                                                                                                    
                                                                                                    
                                                                                                    
                                                                                                    
                                                                                                    
                                                                                                    
                           
<?xpacket end="w"?></metadata>
<style type="text/css">
	.st0{fill:#78C157;}
	.st1{clip-path:url(#SVGID_2_);}
	.st2{fill:#FFFFFF;}
</style>
<g>
	<path class="st0" d="M516.4,234.3v-97.8h-18.6v28.9c-5.2-5-12.3-7.8-21-7.8c-21.3,0-37.5,17.3-37.5,39c0,21.7,16.2,39.3,37.5,39.3
		c8.7,0,15.8-3,21-8v6.5H516.4L516.4,234.3z M478.9,218c-11.4,0-20.7-9.6-20.7-21.4c0-11.7,9.3-21.4,20.7-21.4
		c7.6,0,14.8,3.8,18.4,10c0.2,0.5,0.5,1.1,0.5,1.8v19.1c0,0.4-0.2,1.1-0.4,1.3C493.9,213.9,486.7,218,478.9,218L478.9,218L478.9,218
		z M431,234.3v-75.2h-18.6v75.2H431L431,234.3z M421.7,153.4c5.9,0,10.8-4.9,10.8-10.8c0-6-4.8-10.8-10.8-10.8s-10.8,4.8-10.8,10.8
		C411,148.5,415.8,153.4,421.7,153.4L421.7,153.4L421.7,153.4z M364.6,235.8c21.7,0,39.3-17.5,39.3-39.3c0-21.7-17.6-39-39.3-39
		c-21.7,0-39.3,17.3-39.3,39C325.4,218.3,343,235.8,364.6,235.8L364.6,235.8L364.6,235.8z M364.6,217.1c-11.3,0-20.5-9.2-20.5-20.5
		c0-11.3,9.2-20.5,20.5-20.5c11.4,0,20.5,9.2,20.5,20.5C385.2,207.9,376.1,217.1,364.6,217.1L364.6,217.1L364.6,217.1z M305.9,234.3
		v-40.2c0-11.9,6.2-18.2,18.1-18.2v-18.4c-23.9,0-36.7,12.7-36.7,36.6v40.2H305.9L305.9,234.3z M277.4,234.3v-97.8h-18.6v28.9
		c-5.2-5-12.3-8-21-8c-21.3,0-37.5,17.5-37.5,39.2c0,21.7,16.2,39.3,37.5,39.3c8.7,0,15.8-2.9,21-8v6.5H277.4L277.4,234.3z
		 M239.9,218c-11.4,0-20.7-9.6-20.7-21.4c0-11.7,9.3-21.4,20.7-21.4c7.6,0,14.8,3.8,18.4,10c0.2,0.5,0.5,1.1,0.5,1.8v19
		c0,0.4-0.2,1.1-0.4,1.4C255,213.9,247.7,218,239.9,218L239.9,218L239.9,218z M192.7,234.3v-40.7c0-20-15.6-36-35.4-36
		c-19.9,0-35.4,16-35.4,36v40.7h18.6v-40.7c0-9.9,6.9-17.4,16.9-17.4c9.9,0,16.9,7.5,16.9,17.4v40.7H192.7L192.7,234.3z M112,234.3
		v-75.2H93.4v6.3c-5.2-5-12.3-7.8-21-7.8c-21.3,0-37.5,17.3-37.5,39c0,21.7,16.2,39.3,37.5,39.3c8.7,0,15.8-2.9,21-8v6.5H112
		L112,234.3z M74.4,218c-11.4,0-20.7-9.6-20.7-21.4c0-11.7,9.3-21.4,20.7-21.4c7.6,0,15.2,3.5,18.4,10c0.2,0.5,0.5,1.1,0.5,1.8v19
		c0,0.4-0.2,1.2-0.4,1.4C89.5,213.9,82.2,218,74.4,218L74.4,218z"/>
</g>
<g>
	<defs>
		<rect id="SVGID_1_" x="513.6" y="16.1" width="206.4" height="255.9"/>
	</defs>
	<clipPath id="SVGID_2_">
		<use xlink:href="#SVGID_1_"  style="overflow:visible;"/>
	</clipPath>
	<g class="st1">
		<g>
			<path class="st0" d="M674.3,55.9c-8.2-25.6-7-21.9-8-24.6l0,0c-0.2-0.8-1-1.4-1.8-1.4c-1.1,0-1.9,0.9-1.9,1.9
				c0,0.4,7.2,25.1,7.3,25.6c-10,3.9-19.6,10-27.8,18.3c-8.3,8.3-14.3,17.9-18.1,28c-27.5-7.9-23.9-6.9-26.1-7.5l0,0
				c-0.2-0.1-0.4-0.1-0.6-0.1c-1.1,0-1.9,0.9-1.9,1.9c0,0.8,0.5,1.5,1.3,1.8l0,0c1.5,0.5-1.1-0.3,25.7,8.3
				c-7.7,24.5-2.6,51.3,15.7,69.4L743.8,70.8C713.5,41,674.3,55.9,674.3,55.9z"/>
			<path class="st0" d="M762.7,60.7c-6,7.2-5.1,17.8,2.1,23.8L819,130c7.2,6,17.8,5.1,23.8-2.1c6-7.1,5.1-17.8-2.1-23.8l-54.2-45.5
				C779.4,52.6,768.7,53.5,762.7,60.7z"/>
			<path class="st0" d="M639.8,192.7l-50.1-32.6c-2.8-1.8-5.8-2.7-8.9-2.7l-14.6-21c-1.1-1.5-3.1-1.8-4.6-0.8
				c-1.5,1.1-1.8,3.1-0.8,4.6l10.8,18.4l-19.7-8.5c-1.6-0.7-3.5,0-4.2,1.6c-0.7,1.6,0,3.5,1.6,4.2l17.2,8.7
				c-0.1,0.1-0.1,0.2-0.2,0.2c-5.1,7.8-2.9,18.3,4.9,23.4l50.1,32.6c7.8,5.1,18.3,2.9,23.4-4.9C649.8,208.2,647.7,197.8,639.8,192.7
				z"/>
			<path class="st0" d="M720,258.8c7.1,7,18.5,6.9,25.4-0.1l13-13.2l32.4,27.2c7.2,6,17.8,5.1,23.8-2.1c6-7.2,5.1-17.8-2.1-23.8
				l-30.3-25.4l15.3-15.5l28.9,24.3c7.2,6,17.8,5.1,23.8-2.1c6-7.2,5.1-17.8-2.1-23.8l-26.8-22.5l4.6-4.6c7-7.1,6.9-18.4-0.1-25.4
				l-77.7-76.9L642.3,182L720,258.8z"/>
		</g>
		<g>
			<path class="st2" d="M636.9,119.4c-2.5,2.6-2.5,6.8,0.1,9.3c2.6,2.6,6.7,2.5,9.3,0c2.5-2.6,2.5-6.7,0-9.3
				C643.7,116.8,639.5,116.8,636.9,119.4z"/>
			<path class="st2" d="M686.6,70.3c-2.5,2.6-2.5,6.8,0.1,9.3c2.6,2.6,6.7,2.5,9.3,0c2.5-2.6,2.5-6.7,0-9.3
				C693.3,67.8,689.2,67.8,686.6,70.3z"/>
		</g>
	</g>
</g>
</svg>
