<?xml version="1.0" encoding="utf-8"?>
<!-- Generator: Adobe Illustrator 19.2.1, SVG Export Plug-In . SVG Version: 6.00 Build 0)  -->
<svg version="1.1" xmlns="http://www.w3.org/2000/svg" xmlns:xlink="http://www.w3.org/1999/xlink" x="0px" y="0px"
	 viewBox="0 0 252 90.3" style="enable-background:new 0 0 252 90.3;" xml:space="preserve">
<metadata><?xpacket begin="﻿" id="W5M0MpCehiHzreSzNTczkc9d"?>
<x:xmpmeta xmlns:x="adobe:ns:meta/" x:xmptk="Adobe XMP Core 5.6-c111 79.158366, 2015/09/25-01:12:00        ">
   <rdf:RDF xmlns:rdf="http://www.w3.org/1999/02/22-rdf-syntax-ns#">
      <rdf:Description rdf:about=""/>
   </rdf:RDF>
</x:xmpmeta>
                                                                                                    
                                                                                                    
                                                                                                    
                                                                                                    
                                                                                                    
                                                                                                    
                                                                                                    
                                                                                                    
                                                                                                    
                                                                                                    
                                                                                                    
                                                                                                    
                                                                                                    
                                                                                                    
                                                                                                    
                                                                                                    
                                                                                                    
                                                                                                    
                                                                                                    
                                                                                                    
                           
<?xpacket end="w"?></metadata>
<style type="text/css">
	.st0{fill:#E5007F;}
	.st1{fill-rule:evenodd;clip-rule:evenodd;fill:#E5007F;}
</style>
<g id="Background">
</g>
<g id="T-Mobile">
	<g>
		<polygon class="st0" points="19,51.3 26,51.3 26,44.2 19,44.2 19,51.3 		"/>
		<path class="st0" d="M35.9,29.9c5.7,0.1,9.2,3.9,9.7,10.9l1.9-0.3l-0.4-12.3H19.3L19,40.5l1.9,0.3c0.5-7,3.9-10.8,9.7-10.9v25.7
			c0,4.7-0.8,5.4-5.8,5.5v2h17.1v-2c-5,0-5.8-0.8-5.8-5.5V29.9L35.9,29.9z"/>
		<polygon class="st0" points="40.3,51.3 47.4,51.3 47.4,44.2 40.3,44.2 40.3,51.3 		"/>
		<polygon class="st0" points="61.5,51.3 68.5,51.3 68.5,44.2 61.5,44.2 61.5,51.3 		"/>
		<polygon class="st0" points="82.6,51.3 89.6,51.3 89.6,44.2 82.6,44.2 82.6,51.3 		"/>
		<path class="st0" d="M109,63l8.9-30.5v23.9c0,2.6-0.1,3.6-0.8,4.2c-0.5,0.5-1.5,0.8-2.7,0.8H114V63h12.6v-1.6H126
			c-1.2,0-2.2-0.3-2.7-0.8c-0.6-0.6-0.8-1.6-0.8-4.2V36c0-2.6,0.2-3.6,0.8-4.2c0.5-0.5,1.5-0.8,2.7-0.8h0.7v-1.6h-9.8l-7.3,24.7
			l-7.2-24.7h-9.7v1.6h0.9c2.7,0,3.2,0.6,3.2,4v19.5c0,3.1-0.1,4.3-0.6,5.3c-0.5,1-1.6,1.6-2.7,1.6h-0.8V63H103v-1.6h-0.7
			c-1.3,0-2.4-0.6-3-1.6c-0.6-1-0.8-1.9-0.8-5.3v-22l8.9,30.5H109L109,63z"/>
		<path class="st1" d="M137.4,39.2c-6.2,0-10.3,4.8-10.3,12.3c0,7.3,4.1,12.2,10.2,12.2c6.1,0,10.2-4.9,10.2-12.3
			C147.5,44.1,143.4,39.2,137.4,39.2L137.4,39.2z M137.2,40.8c1.8,0,3.4,1.1,4.2,3c0.8,1.8,1.2,4.2,1.2,7.6c0,7.1-1.8,10.7-5.3,10.7
			c-3.6,0-5.3-3.5-5.3-10.8c0-3.4,0.4-5.7,1.2-7.5C133.9,42,135.6,40.8,137.2,40.8L137.2,40.8z"/>
		<path class="st1" d="M155.8,29.1l-7.1,0.4V31h0.4c2.1,0,2.6,0.7,2.6,4v23c0,2.9-0.1,3.7-0.5,5h1.7c1.3-2,1.6-2.4,2.1-2.4
			c0.3,0,0.5,0.1,0.9,0.4c2.5,2,3.5,2.5,5.8,2.5c5.4,0,9.3-5.2,9.3-12.5c0-6.9-3.6-11.6-9-11.6c-2.8,0-4.9,1.3-5.9,3.8V29.1
			L155.8,29.1z M161,41.1c3.2,0,4.9,3.4,4.9,10.1c0,6.9-1.7,10.6-5,10.6c-3.6,0-5.5-3.7-5.5-10.4c0-3.3,0.5-5.7,1.5-7.4
			C157.9,42.2,159.5,41.1,161,41.1L161,41.1z"/>
		<path class="st1" d="M180.1,39.5l-7.3,0.4v1.6h0.6c2.1,0,2.6,0.7,2.6,4v11.9c0,3.3-0.5,4.1-2.6,4.1h-0.8V63h11v-1.6h-0.8
			c-2.1,0-2.6-0.7-2.6-4.1V39.5L180.1,39.5z M177.7,29.2c-1.6,0-2.8,1.2-2.8,2.8c0,1.5,1.3,2.8,2.8,2.8c1.6,0,2.8-1.2,2.8-2.8
			C180.4,30.5,179.2,29.2,177.7,29.2L177.7,29.2z"/>
		<path class="st0" d="M192.8,29.1l-7.3,0.4V31h0.6c2.1,0,2.6,0.7,2.6,4v22.3c0,3.4-0.5,4.1-2.6,4.1h-0.8V63h11v-1.6h-0.8
			c-2.1,0-2.6-0.7-2.6-4.1V29.1L192.8,29.1z"/>
		<path class="st1" d="M216.2,51.3c-0.3-7.4-3.9-12.1-9.4-12.1c-5.3,0-9.1,5.1-9.1,12.1c0,7.6,3.8,12.4,9.6,12.4
			c3.8,0,6.4-2,8.5-6.3l-1.5-0.8c-1.8,3.7-3.5,5.2-6.2,5.2c-4,0-5.7-3.1-5.7-10.5H216.2L216.2,51.3z M202.5,49.5
			c0.1-5.3,1.8-8.6,4.6-8.6c2.8,0,4.5,3.2,4.4,8.6H202.5L202.5,49.5z"/>
		<path class="st0" d="M230.9,42.2c-0.4-0.4-0.6-0.9-0.6-1.5c0-0.6,0.2-1.1,0.6-1.5c0.4-0.4,0.9-0.6,1.5-0.6c0.6,0,1.1,0.2,1.5,0.6
			c0.4,0.4,0.6,0.9,0.6,1.5c0,0.6-0.2,1.1-0.6,1.5c-0.4,0.4-0.9,0.6-1.5,0.6C231.8,42.8,231.3,42.6,230.9,42.2z M230.6,38.8
			c-0.5,0.5-0.8,1.1-0.8,1.8c0,0.7,0.2,1.3,0.8,1.8c0.5,0.5,1.1,0.8,1.8,0.8c0.7,0,1.3-0.3,1.8-0.8c0.5-0.5,0.8-1.1,0.8-1.8
			c0-0.7-0.3-1.3-0.8-1.8c-0.5-0.5-1.1-0.8-1.8-0.8C231.7,38.1,231.1,38.4,230.6,38.8z M232.8,40.8c0.4-0.1,0.5-0.4,0.5-0.7
			c0-0.2-0.1-0.4-0.3-0.6c-0.2-0.1-0.4-0.2-0.7-0.2h-0.9V42h0.5v-1.1h0.3l0.7,1.1h0.6L232.8,40.8z M232.1,39.7h0.3
			c0.3,0,0.5,0.1,0.5,0.4c0,0.3-0.2,0.4-0.5,0.4h-0.3V39.7z"/>
		<polygon class="st0" points="222.2,51.3 229.2,51.3 229.2,44.2 222.2,44.2 222.2,51.3 		"/>
	</g>
</g>
</svg>
