<?xml version="1.0" encoding="utf-8"?>
<!-- Generator: Adobe Illustrator 19.2.1, SVG Export Plug-In . SVG Version: 6.00 Build 0)  -->
<svg version="1.1" id="Layer_1" xmlns="http://www.w3.org/2000/svg" xmlns:xlink="http://www.w3.org/1999/xlink" x="0px" y="0px"
	 viewBox="0 0 639 239.5" style="enable-background:new 0 0 639 239.5;" xml:space="preserve">
<metadata><?xpacket begin="﻿" id="W5M0MpCehiHzreSzNTczkc9d"?>
<x:xmpmeta xmlns:x="adobe:ns:meta/" x:xmptk="Adobe XMP Core 5.6-c111 79.158366, 2015/09/25-01:12:00        ">
   <rdf:RDF xmlns:rdf="http://www.w3.org/1999/02/22-rdf-syntax-ns#">
      <rdf:Description rdf:about=""/>
   </rdf:RDF>
</x:xmpmeta>
                                                                                                    
                                                                                                    
                                                                                                    
                                                                                                    
                                                                                                    
                                                                                                    
                                                                                                    
                                                                                                    
                                                                                                    
                                                                                                    
                                                                                                    
                                                                                                    
                                                                                                    
                                                                                                    
                                                                                                    
                                                                                                    
                                                                                                    
                                                                                                    
                                                                                                    
                                                                                                    
                           
<?xpacket end="w"?></metadata>
<style type="text/css">
	.st0{fill:#EA4335;}
	.st1{fill:#4285F4;}
	.st2{fill:#FABB05;}
	.st3{fill:#34A852;}
	.st4{fill:#4D4D4F;}
</style>
<g id="SuperG_Logo">
	<g>
		<g>
			<path class="st0" d="M110.2,61c14.3,0,27.2,4.9,37.3,14.6l0,0l27.8-27.8c-16.9-15.7-38.8-25.3-65.1-25.3
				c-38,0-70.9,21.8-86.9,53.6l32.3,25.1C63.4,78.1,84.9,61,110.2,61z"/>
			<path class="st1" d="M201.6,101.5h-91.3V140h52.4c-2.3,12-9.1,22.3-19.3,29.2l31.3,24.3c18.3-16.9,28.8-41.9,28.8-71.5
				C203.4,114.9,202.8,108,201.6,101.5z"/>
			<path class="st2" d="M55.6,138.4c-2-5.9-3-12.1-3-18.6s1.1-12.7,3-18.6L23.4,76.1C16.7,89.2,13,104,13,119.8s3.7,30.5,10.4,43.7
				L55.6,138.4z"/>
			<path class="st3" d="M110.2,217c26.3,0,48.3-8.6,64.4-23.5l-31.3-24.3c-8.7,5.9-19.9,9.3-33.1,9.3c-25.4,0-46.9-17.1-54.6-40.1
				l-32.3,25.1C39.4,195.2,72.2,217,110.2,217z"/>
		</g>
	</g>
</g>
<g>
	<path class="st4" d="M299.6,135.2h-14.3V24.1h37.9c9.4,0,17.6,3.1,24.4,9.4c6.9,6.3,10.3,14.2,10.3,23.7c0,9.5-3.4,17.4-10.3,23.7
		c-6.9,6.3-15,9.4-24.4,9.4h-23.6V135.2z M299.6,76.5h23.9c6,0,10.8-2,14.4-6.1c3.6-4,5.4-8.5,5.4-13.3s-1.8-9.3-5.4-13.3
		c-3.6-4-8.4-6.1-14.4-6.1h-23.9V76.5z"/>
	<path class="st4" d="M383.6,40c-2,2-4.3,3-7.1,3s-5.2-1-7.1-3c-2-2-2.9-4.3-2.9-7.1s1-5.2,2.9-7.1c2-2,4.3-3,7.1-3s5.2,1,7.1,3
		c2,2,2.9,4.3,2.9,7.1S385.6,38.1,383.6,40z M383.6,135.2h-14.3V59.1h14.3V135.2z"/>
	<path class="st4" d="M465.6,135.2h-16.8L430,107.1l-18.5,28.1h-16.8l26.9-38.7l-26.2-37.4h16.1L430.3,86l17.9-26.9h16.8l-26.5,37.4
		L465.6,135.2z"/>
	<path class="st4" d="M506.8,137.7c-11.5,0-20.8-3.8-28-11.5c-7.2-7.7-10.8-17.3-10.8-29c0-11.1,3.5-20.6,10.5-28.6
		c7-8,15.9-12,26.8-12c11.3,0,20.3,3.7,27.1,11c6.8,7.3,10.2,17.2,10.2,29.5l-0.2,2.6h-60.1c0.4,7.7,3,13.7,7.7,18.2
		c4.7,4.5,10.2,6.7,16.5,6.7c10.2,0,17.2-4.3,20.8-13l12.7,5.3c-2.5,5.9-6.6,10.8-12.3,14.8C522.1,135.7,515.1,137.7,506.8,137.7z
		 M527.3,88c-0.3-4.3-2.3-8.5-6-12.4c-3.7-3.9-9.1-5.9-16.4-5.9c-5.3,0-9.9,1.7-13.7,5c-3.9,3.3-6.5,7.8-8,13.3H527.3z"/>
	<path class="st4" d="M569.1,135.2h-14.3V24.1h14.3V135.2z"/>
</g>
<g>
	<g>
		<path class="st4" d="M234.9,194.4h-5v-38.7h13.2c3.3,0,6.1,1.1,8.5,3.3c2.4,2.2,3.6,4.9,3.6,8.2c0,3.3-1.2,6.1-3.6,8.2
			c-2.4,2.2-5.2,3.3-8.5,3.3h-8.2V194.4z M234.9,174h8.3c2.1,0,3.8-0.7,5-2.1s1.9-3,1.9-4.6c0-1.7-0.6-3.2-1.9-4.6s-2.9-2.1-5-2.1
			h-8.3V174z"/>
		<path class="st4" d="M263.7,155.7v12.2l-0.2,3.7h0.2c0.7-1.3,1.9-2.3,3.4-3.2c1.5-0.9,3.2-1.3,5-1.3c3.3,0,5.8,1,7.5,3
			c1.7,2,2.6,4.7,2.6,8.1v16.2h-5V179c0-4.9-2.2-7.3-6.5-7.3c-2.1,0-3.7,0.8-5,2.5c-1.3,1.6-1.9,3.5-1.9,5.7v14.6h-5v-38.7H263.7z"
			/>
		<path class="st4" d="M289.7,171.1c2.6-2.7,5.8-4,9.8-4c4,0,7.2,1.3,9.8,4c2.6,2.7,3.8,6,3.8,10.1c0,4-1.3,7.4-3.8,10.1
			c-2.6,2.7-5.8,4-9.8,4c-4,0-7.2-1.3-9.8-4c-2.6-2.7-3.8-6-3.8-10.1C285.9,177.1,287.2,173.8,289.7,171.1z M293.4,188.1
			c1.7,1.7,3.7,2.6,6.1,2.6c2.3,0,4.4-0.9,6.1-2.6c1.7-1.7,2.6-4.1,2.6-6.9s-0.9-5.2-2.6-6.9c-1.7-1.7-3.7-2.6-6.1-2.6
			c-2.3,0-4.4,0.9-6.1,2.6c-1.7,1.7-2.6,4.1-2.6,6.9S291.7,186.4,293.4,188.1z"/>
		<path class="st4" d="M321.9,167.9v3.7h0.2c0.7-1.3,1.9-2.3,3.4-3.2c1.5-0.9,3.2-1.3,5-1.3c3.3,0,5.8,1,7.5,3
			c1.7,2,2.6,4.7,2.6,8.1v16.2h-5V179c0-4.9-2.2-7.3-6.5-7.3c-2.1,0-3.7,0.8-5,2.5c-1.3,1.6-1.9,3.5-1.9,5.7v14.6h-5v-26.5H321.9z"
			/>
		<path class="st4" d="M357.8,195.3c-4,0-7.2-1.3-9.7-4c-2.5-2.7-3.8-6-3.8-10.1c0-3.9,1.2-7.2,3.6-9.9c2.4-2.8,5.5-4.2,9.3-4.2
			c3.9,0,7.1,1.3,9.4,3.8c2.4,2.6,3.5,6,3.5,10.3l-0.1,0.9h-20.9c0.1,2.7,1,4.8,2.7,6.3c1.6,1.5,3.6,2.3,5.8,2.3
			c3.6,0,6-1.5,7.2-4.5l4.4,1.8c-0.9,2.1-2.3,3.8-4.3,5.2S360.7,195.3,357.8,195.3z M365,178c-0.1-1.5-0.8-3-2.1-4.3
			c-1.3-1.4-3.2-2.1-5.7-2.1c-1.8,0-3.4,0.6-4.8,1.7c-1.3,1.2-2.3,2.7-2.8,4.6H365z"/>
	</g>
	<g>
		<path class="st4" d="M400.6,195.3c-2,0-3.8-0.4-5.4-1.3s-2.8-1.9-3.6-3.2h-0.2v3.7h-4.8v-38.7h5v12.2l-0.2,3.7h0.2
			c0.8-1.3,2-2.4,3.6-3.2c1.6-0.9,3.4-1.3,5.4-1.3c3.4,0,6.4,1.4,8.9,4.1c2.5,2.7,3.7,6,3.7,10s-1.2,7.3-3.7,10
			S404.1,195.3,400.6,195.3z M399.8,190.7c2.3,0,4.3-0.9,5.9-2.6c1.7-1.7,2.5-4.1,2.5-6.9s-0.8-5.2-2.5-6.9
			c-1.7-1.7-3.6-2.6-5.9-2.6c-2.3,0-4.3,0.9-6,2.6c-1.6,1.7-2.5,4-2.5,7s0.8,5.2,2.5,7C395.5,189.9,397.5,190.7,399.8,190.7z"/>
		<path class="st4" d="M423.2,206.1h-5.1l6.2-13.3l-10.9-24.8h5.4l7.9,19h0.1l7.7-19h5.4L423.2,206.1z"/>
	</g>
	<g>
		<g>
			<path class="st4" d="M474.8,195.3c-12.1,0-22.2-9.8-22.2-21.9c0-12.1,10.1-21.9,22.2-21.9c6.7,0,11.4,2.6,15,6l-4.2,4.2
				c-2.6-2.4-6-4.3-10.8-4.3c-8.8,0-15.7,7.1-15.7,15.9c0,8.8,6.9,15.9,15.7,15.9c5.7,0,9-2.3,11-4.4c1.7-1.7,2.8-4.2,3.3-7.5h-14.2
				v-6H495c0.2,1.1,0.3,2.3,0.3,3.7c0,4.5-1.2,10-5.2,14C486.3,193.1,481.4,195.3,474.8,195.3"/>
			<path class="st4" d="M519.2,181.2c0-5.1-3.7-8.5-7.9-8.5c-4.3,0-7.9,3.5-7.9,8.5c0,5,3.7,8.5,7.9,8.5
				C515.5,189.7,519.2,186.2,519.2,181.2 M525.4,181.2c0,8.1-6.3,14.1-14.1,14.1c-7.8,0-14.1-6-14.1-14.1c0-8.2,6.3-14.1,14.1-14.1
				C519,167.1,525.4,173,525.4,181.2"/>
			<path class="st4" d="M550.1,181.2c0-5.1-3.7-8.5-7.9-8.5c-4.3,0-7.9,3.5-7.9,8.5c0,5,3.7,8.5,7.9,8.5
				C546.5,189.7,550.1,186.2,550.1,181.2 M556.3,181.2c0,8.1-6.3,14.1-14.1,14.1s-14.1-6-14.1-14.1c0-8.2,6.3-14.1,14.1-14.1
				S556.3,173,556.3,181.2"/>
			<path class="st4" d="M580.4,181.2c0-5-3.3-8.6-7.5-8.6c-4.3,0-7.8,3.6-7.8,8.6c0,4.9,3.6,8.5,7.8,8.5
				C577.1,189.7,580.4,186.1,580.4,181.2 M585.8,167.9v25.3c0,10.4-6.1,14.7-13.4,14.7c-6.8,0-10.9-4.6-12.5-8.3l5.4-2.2
				c1,2.3,3.3,5,7.1,5c4.6,0,7.5-2.9,7.5-8.3v-2h-0.2c-1.4,1.7-4.1,3.2-7.4,3.2c-7,0-13.5-6.1-13.5-14c0-7.9,6.4-14.1,13.5-14.1
				c3.4,0,6,1.5,7.4,3.1h0.2v-2.3H585.8z"/>
		</g>
		<rect x="589.6" y="153.2" class="st4" width="6.2" height="41.2"/>
		<g>
			<path class="st4" d="M604.7,180.7l12.6-5.2c-0.7-1.8-2.8-3-5.2-3C608.9,172.5,604.5,175.3,604.7,180.7 M619.5,185.8l4.8,3.2
				c-1.5,2.3-5.3,6.2-11.7,6.2c-8,0-14-6.2-14-14.1c0-8.4,6-14.1,13.3-14.1c7.3,0,10.9,5.8,12.1,9l0.6,1.6l-18.8,7.8
				c1.4,2.8,3.7,4.3,6.8,4.3C615.7,189.7,617.9,188.2,619.5,185.8"/>
		</g>
	</g>
</g>
</svg>
