<svg id="Layer_1" data-name="Layer 1" xmlns="http://www.w3.org/2000/svg" viewBox="0 0 207.08 95.84"><title>Untitled-1</title><path d="M68.16,93.25l-1.73-9.69a43.25,43.25,0,0,1-15.31,9.52,57.78,57.78,0,0,1-18.77,2.77q-13.84,0-23.1-7T0,68.51q0-8.82,3.81-14.62a24.86,24.86,0,0,1,9.95-8.82,51,51,0,0,1,12.72-4.33q6.57-1.3,16.26-2.51,11.59-1.38,16.69-3t5.1-6.14a5.82,5.82,0,0,0-3.72-5.88,20.63,20.63,0,0,0-8-1.56,18.73,18.73,0,0,0-8.48,1.82q-3.63,1.82-4.15,7H5.54q0-14.88,11.76-22.66T55,0Q70.58,0,79.84,2.68t13.67,7.61a23.8,23.8,0,0,1,5.71,11.25,81.7,81.7,0,0,1,1.3,16V79.93a22.06,22.06,0,0,0,.78,6.66q0.78,2.34,4.07,4.93v1.73H68.16Zm-7.35-23q3.89-5.19,3.89-14l-0.17-1.56V53.11A68,68,0,0,1,51.9,56.92q-7.78,1.73-11.25,3.72t-3.46,7.18a6.4,6.4,0,0,0,3,5.54q3,2.08,8.39,2.08Q56.92,75.43,60.81,70.24Z"/><path d="M147,65a9.88,9.88,0,0,0,3.81,8.3,14.12,14.12,0,0,0,8.82,2.77,16,16,0,0,0,8.13-1.9A6.64,6.64,0,0,0,171.1,68q0-3.8-4.5-5.62a93.22,93.22,0,0,0-14.36-3.89q-8.13-1.56-13.93-3.11a44.63,44.63,0,0,1-11-4.58,24.81,24.81,0,0,1-8.48-8.13,23,23,0,0,1-3.29-12.72,25.54,25.54,0,0,1,3.81-14.19A27.67,27.67,0,0,1,129.49,6.4a47.64,47.64,0,0,1,13.84-4.93A78.88,78.88,0,0,1,158.47,0a98.22,98.22,0,0,1,15.74,1.21A49.77,49.77,0,0,1,188,5.54a28.32,28.32,0,0,1,10.55,8.74q4.15,5.62,4.84,14.27h-32.7A9.73,9.73,0,0,0,167.29,22,11.18,11.18,0,0,0,160,19.72a15.08,15.08,0,0,0-7.53,1.56,5.21,5.21,0,0,0-2.68,4.84q0,3.29,4.33,4.93a105.19,105.19,0,0,0,14.19,3.72q8.82,1.91,14.7,3.63a56.88,56.88,0,0,1,11.5,4.84,25.72,25.72,0,0,1,9.08,8.3,22.26,22.26,0,0,1,3.46,12.63q0,14.71-12.28,23.18t-36.5,8.48a84.86,84.86,0,0,1-16.09-1.47,48.27,48.27,0,0,1-14.1-5,29.59,29.59,0,0,1-10.55-9.6A30.2,30.2,0,0,1,112.79,65H147Z"/></svg>