<?xml version="1.0" encoding="utf-8"?>
<!-- Generator: Adobe Illustrator 19.2.1, SVG Export Plug-In . SVG Version: 6.00 Build 0)  -->
<svg version="1.1" id="CTA_MATERIAL_1_" xmlns="http://www.w3.org/2000/svg" xmlns:xlink="http://www.w3.org/1999/xlink" x="0px"
	 y="0px" viewBox="0 0 124.8 19.1" enable-background="new 0 0 124.8 19.1" xml:space="preserve">
<g id="En_savoir_plus">
	<g>
		<path fill="#FFFFFF" d="M8.4,8.7H2.5V13h6.9v2H0V0.8h9.3v2H2.5v3.9h5.9V8.7z"/>
		<path fill="#FFFFFF" d="M13.6,4.4l0.1,1.2c0.8-0.9,1.8-1.4,3.1-1.4c2.2,0,3.4,1.3,3.4,3.8v7h-2.4V8.2c0-0.7-0.1-1.2-0.4-1.5
			c-0.3-0.3-0.8-0.5-1.4-0.5c-1,0-1.7,0.4-2.2,1.3V15h-2.4V4.4H13.6z"/>
		<path fill="#FFFFFF" d="M34,12.1c0-0.4-0.2-0.7-0.5-1c-0.4-0.2-0.9-0.4-1.8-0.6s-1.5-0.4-2-0.6c-1.2-0.6-1.8-1.4-1.8-2.5
			c0-0.9,0.4-1.7,1.2-2.3c0.8-0.6,1.8-0.9,3-0.9c1.3,0,2.3,0.3,3.1,0.9c0.8,0.6,1.2,1.4,1.2,2.4h-2.4c0-0.5-0.2-0.8-0.5-1.1
			C33,6.2,32.6,6,32,6c-0.5,0-1,0.1-1.3,0.4c-0.3,0.2-0.5,0.6-0.5,1c0,0.4,0.2,0.6,0.5,0.9c0.3,0.2,0.9,0.4,1.9,0.6
			c0.9,0.2,1.7,0.4,2.2,0.7c0.5,0.3,0.9,0.6,1.2,1s0.4,0.9,0.4,1.4c0,1-0.4,1.7-1.2,2.3c-0.8,0.6-1.8,0.9-3.1,0.9
			c-0.9,0-1.7-0.2-2.3-0.5c-0.7-0.3-1.2-0.7-1.6-1.3c-0.4-0.5-0.6-1.1-0.6-1.8h2.3c0,0.6,0.2,1,0.6,1.3c0.4,0.3,0.9,0.5,1.6,0.5
			c0.6,0,1.1-0.1,1.4-0.4C33.8,12.8,34,12.5,34,12.1z"/>
		<path fill="#FFFFFF" d="M44.9,15c-0.1-0.2-0.2-0.5-0.3-1c-0.8,0.8-1.7,1.2-2.8,1.2c-1.1,0-1.9-0.3-2.6-0.9c-0.7-0.6-1-1.4-1-2.2
			c0-1.1,0.4-2,1.3-2.6c0.8-0.6,2.1-0.9,3.6-0.9h1.5V7.9c0-0.5-0.2-1-0.5-1.3s-0.8-0.5-1.4-0.5c-0.5,0-1,0.1-1.3,0.4
			c-0.3,0.3-0.5,0.6-0.5,1h-2.4c0-0.6,0.2-1.1,0.6-1.6s0.9-0.9,1.6-1.2c0.7-0.3,1.4-0.4,2.2-0.4c1.2,0,2.2,0.3,3,0.9
			c0.7,0.6,1.1,1.5,1.1,2.6v4.8c0,1,0.1,1.7,0.4,2.3V15H44.9z M42.2,13.3c0.5,0,0.9-0.1,1.3-0.3c0.4-0.2,0.7-0.5,0.9-0.9v-2h-1.3
			c-0.9,0-1.6,0.2-2,0.5c-0.4,0.3-0.7,0.7-0.7,1.3c0,0.5,0.2,0.8,0.5,1.1S41.7,13.3,42.2,13.3z"/>
		<path fill="#FFFFFF" d="M53,12l2.3-7.6h2.5L54,15h-2.1L48.2,4.4h2.5L53,12z"/>
		<path fill="#FFFFFF" d="M58.5,9.6c0-1,0.2-2,0.6-2.8c0.4-0.8,1-1.5,1.7-1.9c0.7-0.4,1.6-0.7,2.6-0.7c1.4,0,2.6,0.5,3.5,1.4
			s1.4,2.1,1.5,3.7l0,0.6c0,1-0.2,2-0.6,2.8s-1,1.5-1.7,1.9c-0.8,0.4-1.6,0.7-2.6,0.7c-1.5,0-2.7-0.5-3.6-1.5c-0.9-1-1.4-2.3-1.4-4
			V9.6z M60.9,9.8c0,1.1,0.2,1.9,0.7,2.6c0.5,0.6,1.1,0.9,1.9,0.9s1.4-0.3,1.9-0.9c0.5-0.6,0.7-1.5,0.7-2.7c0-1.1-0.2-1.9-0.7-2.5
			c-0.5-0.6-1.1-0.9-1.9-0.9c-0.8,0-1.4,0.3-1.9,0.9S60.9,8.6,60.9,9.8z"/>
		<path fill="#FFFFFF" d="M70.5,1.7c0-0.4,0.1-0.7,0.3-0.9s0.6-0.4,1-0.4s0.8,0.1,1,0.4s0.4,0.5,0.4,0.9c0,0.4-0.1,0.7-0.4,0.9
			s-0.6,0.4-1,0.4s-0.8-0.1-1-0.4S70.5,2,70.5,1.7z M73.1,15h-2.4V4.4h2.4V15z"/>
		<path fill="#FFFFFF" d="M81.4,6.6c-0.3-0.1-0.6-0.1-1-0.1c-1.1,0-1.8,0.4-2.2,1.3V15h-2.4V4.4h2.3l0.1,1.2
			c0.6-0.9,1.4-1.4,2.4-1.4c0.3,0,0.6,0,0.8,0.1L81.4,6.6z"/>
		<path fill="#FFFFFF" d="M97.7,9.8c0,1.6-0.4,2.9-1.1,3.9c-0.7,1-1.8,1.5-3,1.5c-1.2,0-2.1-0.4-2.8-1.1v5h-2.4V4.4h2.2l0.1,1.1
			c0.7-0.8,1.7-1.3,2.9-1.3c1.3,0,2.3,0.5,3.1,1.4c0.7,1,1.1,2.3,1.1,4V9.8z M95.3,9.6c0-1.1-0.2-1.9-0.6-2.5
			c-0.4-0.6-1-0.9-1.8-0.9c-1,0-1.7,0.4-2.1,1.2v4.7c0.4,0.8,1.1,1.2,2.1,1.2c0.8,0,1.4-0.3,1.8-0.9C95.1,11.8,95.3,10.9,95.3,9.6z"
			/>
		<path fill="#FFFFFF" d="M102.4,15H100V0h2.4V15z"/>
		<path fill="#FFFFFF" d="M111.6,14c-0.7,0.8-1.7,1.2-3,1.2c-1.2,0-2-0.3-2.6-1c-0.6-0.7-0.9-1.6-0.9-2.9V4.4h2.4v6.8
			c0,1.3,0.6,2,1.7,2c1.2,0,1.9-0.4,2.4-1.2V4.4h2.4V15h-2.3L111.6,14z"/>
		<path fill="#FFFFFF" d="M122.5,12.1c0-0.4-0.2-0.7-0.5-1c-0.4-0.2-0.9-0.4-1.8-0.6s-1.5-0.4-2-0.6c-1.2-0.6-1.8-1.4-1.8-2.5
			c0-0.9,0.4-1.7,1.2-2.3c0.8-0.6,1.8-0.9,3-0.9c1.3,0,2.3,0.3,3.1,0.9c0.8,0.6,1.2,1.4,1.2,2.4h-2.4c0-0.5-0.2-0.8-0.5-1.1
			c-0.3-0.3-0.8-0.5-1.4-0.5c-0.5,0-1,0.1-1.3,0.4s-0.5,0.6-0.5,1c0,0.4,0.2,0.6,0.5,0.9c0.3,0.2,0.9,0.4,1.9,0.6
			c0.9,0.2,1.7,0.4,2.2,0.7c0.5,0.3,0.9,0.6,1.2,1c0.3,0.4,0.4,0.9,0.4,1.4c0,1-0.4,1.7-1.2,2.3c-0.8,0.6-1.8,0.9-3.1,0.9
			c-0.9,0-1.7-0.2-2.3-0.5c-0.7-0.3-1.2-0.7-1.6-1.3c-0.4-0.5-0.6-1.1-0.6-1.8h2.3c0,0.6,0.2,1,0.6,1.3s0.9,0.5,1.6,0.5
			c0.6,0,1.1-0.1,1.4-0.4C122.3,12.8,122.5,12.5,122.5,12.1z"/>
	</g>
</g>
</svg>
