<?xml version="1.0" encoding="utf-8"?>
<!-- Generator: Adobe Illustrator 19.2.1, SVG Export Plug-In . SVG Version: 6.00 Build 0)  -->
<svg version="1.1" id="SuperG-LockUp" xmlns="http://www.w3.org/2000/svg" xmlns:xlink="http://www.w3.org/1999/xlink" x="0px"
	 y="0px" viewBox="0 0 515.5 100.4" enable-background="new 0 0 515.5 100.4" xml:space="preserve">
<g id="Headline">
	<g>
		<path fill="#4D4D4F" d="M156.8,21.7V0.2h6.6c3.3,0,5.9,1,7.9,3c2,2,3,4.6,3,7.8c0,3.2-1,5.8-3,7.8c-2,2-4.6,3-7.9,3H156.8z
			 M159.6,19.1h3.8c2.5,0,4.4-0.7,5.9-2.1c1.5-1.4,2.2-3.4,2.2-6c0-2.5-0.7-4.5-2.2-6c-1.5-1.4-3.4-2.1-5.9-2.1h-3.8V19.1z"/>
		<path fill="#4D4D4F" d="M183.6,22.2c-2.2,0-4-0.7-5.4-2.2c-1.4-1.5-2.1-3.3-2.1-5.6c0-2.1,0.7-4,2-5.5c1.3-1.5,3.1-2.3,5.2-2.3
			c2.2,0,3.9,0.7,5.2,2.1s2,3.3,2,5.7l0,0.5h-11.6c0.1,1.5,0.6,2.7,1.5,3.5c0.9,0.9,2,1.3,3.2,1.3c2,0,3.3-0.8,4-2.5l2.5,1
			c-0.5,1.1-1.3,2.1-2.4,2.9C186.6,21.8,185.2,22.2,183.6,22.2z M187.6,12.6c-0.1-0.8-0.4-1.6-1.2-2.4c-0.7-0.8-1.8-1.1-3.2-1.1
			c-1,0-1.9,0.3-2.7,1c-0.8,0.6-1.3,1.5-1.5,2.6H187.6z M184.3,4.1h-2.4l1.6-3.8h3L184.3,4.1z"/>
		<path fill="#4D4D4F" d="M199.6,22.2c-2.2,0-4-0.7-5.4-2.2c-1.4-1.5-2.1-3.4-2.1-5.6c0-2.2,0.7-4.1,2.1-5.6
			c1.4-1.5,3.2-2.2,5.4-2.2c1.6,0,3,0.4,4.1,1.2c1.1,0.8,1.9,1.8,2.4,3l-2.5,1.1c-0.8-1.8-2.1-2.8-4.1-2.8c-1.2,0-2.3,0.5-3.2,1.5
			c-0.9,1-1.4,2.3-1.4,3.8c0,1.5,0.5,2.8,1.4,3.8c0.9,1,2,1.5,3.2,1.5c2.1,0,3.5-0.9,4.3-2.8l2.5,1c-0.5,1.2-1.3,2.2-2.4,3
			C202.6,21.8,201.2,22.2,199.6,22.2z"/>
		<path fill="#4D4D4F" d="M209.7,8.8c1.4-1.5,3.2-2.2,5.4-2.2c2.2,0,4,0.7,5.4,2.2s2.1,3.4,2.1,5.6c0,2.2-0.7,4.1-2.1,5.6
			c-1.4,1.5-3.2,2.2-5.4,2.2c-2.2,0-4-0.7-5.4-2.2c-1.4-1.5-2.1-3.4-2.1-5.6C207.5,12.1,208.3,10.3,209.7,8.8z M211.7,18.2
			c0.9,1,2.1,1.5,3.4,1.5c1.3,0,2.4-0.5,3.4-1.5c0.9-1,1.4-2.3,1.4-3.9c0-1.6-0.5-2.9-1.4-3.9c-1-1-2.1-1.5-3.4-1.5
			c-1.3,0-2.4,0.5-3.4,1.5c-1,1-1.4,2.3-1.4,3.9C210.3,16,210.8,17.3,211.7,18.2z"/>
		<path fill="#4D4D4F" d="M237.9,21.7h-2.6v-2h-0.1c-0.4,0.7-1.1,1.3-1.9,1.8c-0.9,0.5-1.8,0.7-2.7,0.7c-1.8,0-3.2-0.6-4.2-1.7
			c-1-1.1-1.4-2.6-1.4-4.5V7h2.8v8.6c0,2.7,1.2,4.1,3.6,4.1c1.1,0,2.1-0.5,2.8-1.4c0.7-0.9,1.1-2,1.1-3.2V7h2.8V21.7z"/>
		<path fill="#4D4D4F" d="M245.5,21.7L239.6,7h3l4.3,11.4h0.1L251.3,7h2.9l-6,14.7H245.5z"/>
		<path fill="#4D4D4F" d="M258.7,21.7h-2.8V7h2.6v2.4h0.1c0.3-0.8,0.9-1.5,1.7-2s1.7-0.8,2.5-0.8c0.8,0,1.5,0.1,2.1,0.4l-1,2.6
			c-0.4-0.1-0.9-0.2-1.5-0.2c-1,0-1.9,0.4-2.7,1.2c-0.8,0.8-1.2,1.8-1.2,3.1V21.7z"/>
		<path fill="#4D4D4F" d="M273.3,22.2c-2.2,0-4-0.7-5.4-2.2c-1.4-1.5-2.1-3.3-2.1-5.6c0-2.1,0.7-4,2-5.5c1.3-1.5,3.1-2.3,5.2-2.3
			c2.2,0,3.9,0.7,5.2,2.1s2,3.3,2,5.7l0,0.5h-11.6c0.1,1.5,0.6,2.7,1.5,3.5c0.9,0.9,2,1.3,3.2,1.3c2,0,3.3-0.8,4-2.5l2.5,1
			c-0.5,1.1-1.3,2.1-2.4,2.9C276.3,21.8,274.9,22.2,273.3,22.2z M277.3,12.6c-0.1-0.8-0.4-1.6-1.2-2.4c-0.7-0.8-1.8-1.1-3.2-1.1
			c-1,0-1.9,0.3-2.7,1c-0.8,0.6-1.3,1.5-1.5,2.6H277.3z"/>
		<path fill="#4D4D4F" d="M281.9,21.7v-2.4l8.4-9.8h-8.1V7h11.5v2.4l-8.4,9.8h8.5v2.5H281.9z"/>
		<path fill="#4D4D4F" d="M306.5,21.7h-2.8V0.2h7.3c1.8,0,3.4,0.6,4.7,1.8c1.3,1.2,2,2.7,2,4.6c0,1.8-0.7,3.4-2,4.6
			c-1.3,1.2-2.9,1.8-4.7,1.8h-4.6V21.7z M306.5,10.4h4.6c1.2,0,2.1-0.4,2.8-1.2c0.7-0.8,1-1.6,1-2.6s-0.3-1.8-1-2.6
			c-0.7-0.8-1.6-1.2-2.8-1.2h-4.6V10.4z"/>
		<path fill="#4D4D4F" d="M322.8,3.3c-0.4,0.4-0.8,0.6-1.4,0.6s-1-0.2-1.4-0.6c-0.4-0.4-0.6-0.8-0.6-1.4s0.2-1,0.6-1.4
			s0.8-0.6,1.4-0.6c0.5,0,1,0.2,1.4,0.6c0.4,0.4,0.6,0.8,0.6,1.4S323.2,3,322.8,3.3z M322.8,21.7H320V7h2.8V21.7z"/>
		<path fill="#4D4D4F" d="M338.6,21.7h-3.2l-3.6-5.4l-3.6,5.4h-3.2l5.2-7.5L325.1,7h3.1l3.6,5.2l3.5-5.2h3.2l-5.1,7.2L338.6,21.7z"
			/>
		<path fill="#4D4D4F" d="M346.6,22.2c-2.2,0-4-0.7-5.4-2.2c-1.4-1.5-2.1-3.3-2.1-5.6c0-2.1,0.7-4,2-5.5c1.3-1.5,3.1-2.3,5.2-2.3
			c2.2,0,3.9,0.7,5.2,2.1c1.3,1.4,2,3.3,2,5.7l0,0.5h-11.6c0.1,1.5,0.6,2.7,1.5,3.5c0.9,0.9,2,1.3,3.2,1.3c2,0,3.3-0.8,4-2.5l2.5,1
			c-0.5,1.1-1.3,2.1-2.4,2.9C349.5,21.8,348.2,22.2,346.6,22.2z M350.6,12.6c-0.1-0.8-0.4-1.6-1.2-2.4c-0.7-0.8-1.8-1.1-3.2-1.1
			c-1,0-1.9,0.3-2.7,1c-0.8,0.6-1.3,1.5-1.5,2.6H350.6z"/>
		<path fill="#4D4D4F" d="M358.6,21.7h-2.8V0.2h2.8V21.7z"/>
	</g>
	<g>
		<g>
			<path fill="#4D4D4F" d="M15.8,86.8h-5V52.9H0l0-4.8h26.6v4.8H15.8V86.8z"/>
			<path fill="#4D4D4F" d="M37.6,87.7c-4,0-7.2-1.3-9.7-4c-2.5-2.7-3.8-6-3.8-10.1c0-3.9,1.2-7.2,3.6-9.9c2.4-2.8,5.5-4.2,9.3-4.2
				c3.9,0,7.1,1.3,9.4,3.8c2.4,2.6,3.5,6,3.5,10.3l-0.1,0.9H29c0.1,2.7,1,4.8,2.7,6.3c1.6,1.5,3.6,2.3,5.8,2.3c3.6,0,6-1.5,7.2-4.5
				l4.4,1.8c-0.9,2.1-2.3,3.8-4.3,5.2C42.9,87,40.5,87.7,37.6,87.7z M44.7,70.4c-0.1-1.5-0.8-3-2.1-4.3c-1.3-1.4-3.2-2.1-5.7-2.1
				c-1.8,0-3.4,0.6-4.8,1.7c-1.4,1.2-2.3,2.7-2.8,4.6H44.7z M38.8,55h-4.3l2.8-6.9h5.4L38.8,55z"/>
			<path fill="#4D4D4F" d="M59.2,86.8h-5V48.1h5V86.8z"/>
			<path fill="#4D4D4F" d="M77,87.7c-4,0-7.2-1.3-9.7-4c-2.5-2.7-3.8-6-3.8-10.1c0-3.9,1.2-7.2,3.6-9.9c2.4-2.8,5.5-4.2,9.3-4.2
				c3.9,0,7.1,1.3,9.4,3.8c2.4,2.6,3.5,6,3.5,10.3l-0.1,0.9H68.5c0.1,2.7,1,4.8,2.7,6.3c1.6,1.5,3.6,2.3,5.8,2.3
				c3.6,0,6-1.5,7.2-4.5l4.4,1.8c-0.9,2.1-2.3,3.8-4.3,5.2C82.3,87,79.9,87.7,77,87.7z M84.1,70.4c-0.1-1.5-0.8-3-2.1-4.3
				c-1.3-1.4-3.2-2.1-5.7-2.1c-1.8,0-3.4,0.6-4.8,1.7c-1.4,1.2-2.3,2.7-2.8,4.6H84.1z M78.2,55h-4.3l2.8-6.9h5.4L78.2,55z"/>
			<path fill="#4D4D4F" d="M107.5,87.7c-2,0-3.8-0.4-5.4-1.3c-1.6-0.9-2.8-1.9-3.6-3.2h-0.2l0.2,3.7v11.7h-5V60.3h4.8V64h0.2
				c0.8-1.3,2-2.4,3.6-3.2c1.6-0.9,3.4-1.3,5.4-1.3c3.4,0,6.4,1.4,8.9,4.1c2.5,2.7,3.7,6,3.7,10s-1.2,7.3-3.7,10
				C113.8,86.3,110.9,87.7,107.5,87.7z M106.6,83.1c2.3,0,4.3-0.9,5.9-2.6c1.7-1.7,2.5-4.1,2.5-6.9c0-2.9-0.8-5.2-2.5-6.9
				c-1.7-1.7-3.6-2.6-5.9-2.6c-2.3,0-4.3,0.9-6,2.6c-1.6,1.7-2.5,4.1-2.5,7s0.8,5.2,2.5,7C102.3,82.3,104.3,83.1,106.6,83.1z"/>
			<path fill="#4D4D4F" d="M128.5,48.1v12.2l-0.2,3.7h0.2c0.7-1.3,1.9-2.3,3.4-3.2c1.5-0.9,3.2-1.3,5-1.3c3.3,0,5.8,1,7.5,3
				c1.7,2,2.6,4.7,2.6,8.1v16.2h-5V71.4c0-4.9-2.2-7.3-6.5-7.3c-2.1,0-3.7,0.8-5,2.5c-1.3,1.6-1.9,3.5-1.9,5.7v14.6h-5V48.1H128.5z"
				/>
			<path fill="#4D4D4F" d="M154.9,63.5c2.6-2.7,5.8-4,9.8-4c4,0,7.2,1.3,9.8,4c2.6,2.7,3.8,6,3.8,10.1c0,4-1.3,7.4-3.8,10.1
				c-2.6,2.7-5.8,4-9.8,4c-4,0-7.2-1.3-9.8-4c-2.6-2.7-3.8-6-3.8-10.1C151,69.5,152.3,66.2,154.9,63.5z M158.6,80.5
				c1.7,1.7,3.7,2.6,6.1,2.6c2.3,0,4.4-0.9,6.1-2.6c1.7-1.7,2.6-4.1,2.6-6.9c0-2.9-0.9-5.2-2.6-6.9c-1.7-1.7-3.7-2.6-6.1-2.6
				c-2.3,0-4.4,0.9-6.1,2.6c-1.7,1.7-2.6,4.1-2.6,6.9C156,76.4,156.9,78.8,158.6,80.5z"/>
			<path fill="#4D4D4F" d="M187.3,60.3V64h0.2c0.7-1.3,1.9-2.3,3.4-3.2c1.5-0.9,3.2-1.3,5-1.3c3.3,0,5.8,1,7.5,3
				c1.7,2,2.6,4.7,2.6,8.1v16.2h-5V71.4c0-4.9-2.2-7.3-6.5-7.3c-2.1,0-3.7,0.8-5,2.5c-1.3,1.6-1.9,3.5-1.9,5.7v14.6h-5V60.3H187.3z"
				/>
			<path fill="#4D4D4F" d="M223.5,87.7c-4,0-7.2-1.3-9.7-4c-2.5-2.7-3.8-6-3.8-10.1c0-3.9,1.2-7.2,3.6-9.9c2.4-2.8,5.5-4.2,9.3-4.2
				c3.9,0,7.1,1.3,9.4,3.8c2.4,2.6,3.5,6,3.5,10.3l-0.1,0.9H215c0.1,2.7,1,4.8,2.7,6.3c1.6,1.5,3.6,2.3,5.8,2.3c3.6,0,6-1.5,7.2-4.5
				l4.4,1.8c-0.9,2.1-2.3,3.8-4.3,5.2C228.8,87,226.4,87.7,223.5,87.7z M230.7,70.4c-0.1-1.5-0.8-3-2.1-4.3
				c-1.3-1.4-3.2-2.1-5.7-2.1c-1.8,0-3.4,0.6-4.8,1.7c-1.4,1.2-2.3,2.7-2.8,4.6H230.7z"/>
		</g>
		<g>
			<path fill="#4D4D4F" d="M270.3,87.7c-2,0-3.8-0.4-5.4-1.3c-1.6-0.9-2.8-1.9-3.6-3.2H261l0.2,3.7v11.7h-5V60.3h4.8V64h0.2
				c0.8-1.3,2-2.4,3.6-3.2c1.6-0.9,3.4-1.3,5.4-1.3c3.4,0,6.4,1.4,8.9,4.1c2.5,2.7,3.7,6,3.7,10s-1.2,7.3-3.7,10
				C276.6,86.3,273.7,87.7,270.3,87.7z M269.4,83.1c2.3,0,4.3-0.9,5.9-2.6c1.7-1.7,2.5-4.1,2.5-6.9c0-2.9-0.8-5.2-2.5-6.9
				c-1.7-1.7-3.6-2.6-5.9-2.6c-2.3,0-4.3,0.9-6,2.6c-1.6,1.7-2.5,4.1-2.5,7s0.8,5.2,2.5,7C265.1,82.3,267.1,83.1,269.4,83.1z"/>
			<path fill="#4D4D4F" d="M295.5,87.7c-2.8,0-5.2-0.8-7-2.4c-1.9-1.6-2.8-3.8-2.8-6.4c0-2.9,1.1-5.1,3.3-6.8c2.2-1.6,5-2.5,8.3-2.5
				c2.9,0,5.3,0.5,7.2,1.6v-0.8c0-1.9-0.7-3.5-2-4.7c-1.3-1.2-3-1.8-4.9-1.8c-1.4,0-2.7,0.3-3.9,1c-1.2,0.7-2,1.6-2.4,2.8l-4.5-1.9
				c0.6-1.6,1.8-3.1,3.6-4.4s4.2-2,7.1-2c3.4,0,6.2,1,8.4,3c2.2,2,3.3,4.8,3.3,8.4v16h-4.8v-3.7h-0.2
				C302.2,86.2,299.3,87.7,295.5,87.7z M296.3,83.1c2.1,0,3.9-0.8,5.6-2.3c1.7-1.5,2.5-3.3,2.5-5.4c-1.4-1.2-3.5-1.7-6.3-1.7
				c-2.4,0-4.2,0.5-5.5,1.6c-1.2,1-1.8,2.3-1.8,3.7c0,1.3,0.6,2.3,1.7,3.1C293.6,82.7,294.8,83.1,296.3,83.1z"/>
			<path fill="#4D4D4F" d="M319.5,86.8h-5V60.3h4.8v4.3h0.2c0.5-1.4,1.5-2.6,3.1-3.6c1.6-0.9,3.1-1.4,4.6-1.4c1.5,0,2.7,0.2,3.7,0.6
				L329,65c-0.6-0.3-1.5-0.4-2.6-0.4c-1.8,0-3.4,0.7-4.8,2.1c-1.4,1.4-2.1,3.3-2.1,5.6V86.8z"/>
		</g>
		<g>
			<g>
				<path fill="#4D4D4F" d="M365.1,87.7c-12.1,0-22.3-9.9-22.3-22s10.2-22,22.3-22c6.7,0,11.5,2.6,15.1,6.1l-4.2,4.2
					c-2.6-2.4-6.1-4.3-10.8-4.3c-8.8,0-15.8,7.1-15.8,16s6.9,16,15.8,16c5.7,0,9-2.3,11.1-4.4c1.7-1.7,2.8-4.2,3.3-7.6h-14.3v-6
					h20.1c0.2,1.1,0.3,2.4,0.3,3.8c0,4.5-1.2,10.1-5.2,14C376.6,85.5,371.6,87.7,365.1,87.7"/>
				<path fill="#4D4D4F" d="M409.6,73.5c0-5.1-3.7-8.6-8-8.6s-8,3.5-8,8.6c0,5,3.7,8.6,8,8.6S409.6,78.5,409.6,73.5 M415.8,73.5
					c0,8.1-6.4,14.1-14.2,14.1c-7.8,0-14.2-6-14.2-14.1c0-8.2,6.4-14.1,14.2-14.1C409.5,59.4,415.8,65.3,415.8,73.5"/>
				<path fill="#4D4D4F" d="M440.7,73.5c0-5.1-3.7-8.6-8-8.6s-8,3.5-8,8.6c0,5,3.7,8.6,8,8.6S440.7,78.5,440.7,73.5 M446.9,73.5
					c0,8.1-6.4,14.1-14.2,14.1c-7.8,0-14.2-6-14.2-14.1c0-8.2,6.4-14.1,14.2-14.1C440.6,59.4,446.9,65.3,446.9,73.5"/>
				<path fill="#4D4D4F" d="M471.1,73.6c0-5-3.3-8.6-7.6-8.6c-4.3,0-7.9,3.6-7.9,8.6c0,4.9,3.6,8.5,7.9,8.5
					C467.8,82.1,471.1,78.5,471.1,73.6 M476.6,60.2v25.4c0,10.4-6.2,14.7-13.4,14.7c-6.9,0-11-4.6-12.5-8.4l5.4-2.2
					c1,2.3,3.3,5,7.1,5c4.7,0,7.6-2.9,7.6-8.3v-2h-0.2c-1.4,1.7-4.1,3.2-7.4,3.2c-7.1,0-13.5-6.2-13.5-14.1c0-8,6.5-14.2,13.5-14.2
					c3.4,0,6.1,1.5,7.4,3.2h0.2v-2.3H476.6z"/>
			</g>
			<rect x="480.4" y="45.4" fill="#4D4D4F" width="6.2" height="41.4"/>
			<g>
				<path fill="#4D4D4F" d="M495.5,73.1l12.6-5.3c-0.7-1.8-2.8-3-5.3-3C499.8,64.8,495.4,67.6,495.5,73.1 M510.4,78.2l4.8,3.2
					c-1.6,2.3-5.3,6.3-11.8,6.3c-8,0-14-6.2-14-14.1c0-8.4,6.1-14.2,13.3-14.2c7.3,0,10.9,5.8,12.1,9l0.6,1.6l-18.9,7.8
					c1.4,2.8,3.7,4.3,6.9,4.3S508.8,80.5,510.4,78.2"/>
			</g>
		</g>
	</g>
</g>
</svg>
